<mxfile host="app.diagrams.net" agent="Mozilla/5.0 (X11; Linux x86_64) AppleWebKit/537.36 (KHTML, like Gecko) Chrome/131.0.0.0 Safari/537.36" version="26.0.10">
  <diagram name="Page-1" id="iStYoYcr7JB3XJ7MnrNM">
    <mxGraphModel dx="1710" dy="516" grid="1" gridSize="10" guides="1" tooltips="1" connect="1" arrows="1" fold="1" page="1" pageScale="1" pageWidth="850" pageHeight="1100" math="0" shadow="0">
      <root>
        <mxCell id="0" />
        <mxCell id="1" parent="0" />
        <mxCell id="JUYmb1mallrfGTCdvS98-1" value="&lt;h1&gt;&lt;font style=&quot;font-size: 16px;&quot;&gt;C++ Project: Task Manager Simulation&lt;/font&gt;&lt;/h1&gt;" style="rounded=1;whiteSpace=wrap;html=1;fillColor=#d5e8d4;strokeColor=#82b366;" vertex="1" parent="1">
          <mxGeometry x="270" y="170" width="350" height="80" as="geometry" />
        </mxCell>
        <mxCell id="JUYmb1mallrfGTCdvS98-4" style="edgeStyle=orthogonalEdgeStyle;rounded=0;orthogonalLoop=1;jettySize=auto;html=1;" edge="1" parent="1" source="JUYmb1mallrfGTCdvS98-2">
          <mxGeometry relative="1" as="geometry">
            <mxPoint x="580" y="344.9999999999999" as="targetPoint" />
          </mxGeometry>
        </mxCell>
        <mxCell id="JUYmb1mallrfGTCdvS98-2" value="Objective:&#xa;Implement a simple task manager that simulates managing running processes using both stacksÂ and queues.&#xa;&#xa;The task manager will allow users to add, remove, and view processes based on&#xa;different scheduling mechanisms." style="text;whiteSpace=wrap;fillColor=#fff2cc;strokeColor=#d6b656;" vertex="1" parent="1">
          <mxGeometry x="-40" y="290" width="430" height="110" as="geometry" />
        </mxCell>
        <mxCell id="JUYmb1mallrfGTCdvS98-5" value="add, remove and view process" style="rounded=1;whiteSpace=wrap;html=1;fillColor=#f8cecc;strokeColor=#b85450;" vertex="1" parent="1">
          <mxGeometry x="580" y="315" width="120" height="60" as="geometry" />
        </mxCell>
      </root>
    </mxGraphModel>
  </diagram>
</mxfile>
